<mxfile host="app.diagrams.net" modified="2021-03-12T01:58:59.866Z" agent="5.0 (Macintosh; Intel Mac OS X 10_15_5) AppleWebKit/537.36 (KHTML, like Gecko) Chrome/88.0.4324.192 Safari/537.36" etag="bB0XUHOpe6njg1n_SK4m" version="14.4.6" type="github">
  <diagram id="prtHgNgQTEPvFCAcTncT" name="Page-1">
    <mxGraphModel dx="2013" dy="740" grid="1" gridSize="10" guides="1" tooltips="1" connect="1" arrows="1" fold="1" page="1" pageScale="1" pageWidth="827" pageHeight="1169" math="0" shadow="0">
      <root>
        <mxCell id="0" />
        <mxCell id="1" parent="0" />
        <mxCell id="3mG12tcG9sDd9IzTbJzw-1" value="" style="endArrow=none;dashed=1;html=1;dashPattern=1 3;strokeWidth=2;" parent="1" edge="1">
          <mxGeometry width="50" height="50" relative="1" as="geometry">
            <mxPoint x="10" y="570" as="sourcePoint" />
            <mxPoint x="720" y="570" as="targetPoint" />
          </mxGeometry>
        </mxCell>
        <mxCell id="3mG12tcG9sDd9IzTbJzw-6" style="edgeStyle=orthogonalEdgeStyle;rounded=0;orthogonalLoop=1;jettySize=auto;html=1;entryX=0.5;entryY=0;entryDx=0;entryDy=0;" parent="1" source="3mG12tcG9sDd9IzTbJzw-2" target="3mG12tcG9sDd9IzTbJzw-3" edge="1">
          <mxGeometry relative="1" as="geometry" />
        </mxCell>
        <mxCell id="3mG12tcG9sDd9IzTbJzw-27" style="edgeStyle=orthogonalEdgeStyle;rounded=0;orthogonalLoop=1;jettySize=auto;html=1;exitX=1;exitY=0.5;exitDx=0;exitDy=0;entryX=0.5;entryY=0;entryDx=0;entryDy=0;dashed=1;" parent="1" source="3mG12tcG9sDd9IzTbJzw-2" target="3mG12tcG9sDd9IzTbJzw-18" edge="1">
          <mxGeometry relative="1" as="geometry" />
        </mxCell>
        <mxCell id="3mG12tcG9sDd9IzTbJzw-2" value="exec" style="rounded=1;whiteSpace=wrap;html=1;" parent="1" vertex="1">
          <mxGeometry x="30" y="100" width="120" height="60" as="geometry" />
        </mxCell>
        <mxCell id="3mG12tcG9sDd9IzTbJzw-8" style="edgeStyle=orthogonalEdgeStyle;rounded=0;orthogonalLoop=1;jettySize=auto;html=1;exitX=0.5;exitY=1;exitDx=0;exitDy=0;entryX=0;entryY=0.5;entryDx=0;entryDy=0;" parent="1" source="3mG12tcG9sDd9IzTbJzw-3" target="3mG12tcG9sDd9IzTbJzw-4" edge="1">
          <mxGeometry relative="1" as="geometry" />
        </mxCell>
        <mxCell id="3mG12tcG9sDd9IzTbJzw-13" value="options.shell: true" style="edgeLabel;html=1;align=center;verticalAlign=middle;resizable=0;points=[];" parent="3mG12tcG9sDd9IzTbJzw-8" vertex="1" connectable="0">
          <mxGeometry x="-0.6125" y="-1" relative="1" as="geometry">
            <mxPoint as="offset" />
          </mxGeometry>
        </mxCell>
        <mxCell id="3mG12tcG9sDd9IzTbJzw-24" style="edgeStyle=orthogonalEdgeStyle;rounded=0;orthogonalLoop=1;jettySize=auto;html=1;exitX=1;exitY=0.5;exitDx=0;exitDy=0;dashed=1;" parent="1" source="3mG12tcG9sDd9IzTbJzw-3" target="3mG12tcG9sDd9IzTbJzw-18" edge="1">
          <mxGeometry relative="1" as="geometry" />
        </mxCell>
        <mxCell id="3mG12tcG9sDd9IzTbJzw-3" value="execFile" style="rounded=1;whiteSpace=wrap;html=1;" parent="1" vertex="1">
          <mxGeometry x="30" y="210" width="120" height="60" as="geometry" />
        </mxCell>
        <mxCell id="3mG12tcG9sDd9IzTbJzw-11" style="edgeStyle=orthogonalEdgeStyle;rounded=0;orthogonalLoop=1;jettySize=auto;html=1;exitX=0.5;exitY=1;exitDx=0;exitDy=0;" parent="1" source="3mG12tcG9sDd9IzTbJzw-4" target="3mG12tcG9sDd9IzTbJzw-10" edge="1">
          <mxGeometry relative="1" as="geometry" />
        </mxCell>
        <mxCell id="3mG12tcG9sDd9IzTbJzw-4" value="spawn" style="rounded=1;whiteSpace=wrap;html=1;" parent="1" vertex="1">
          <mxGeometry x="270" y="330" width="120" height="60" as="geometry" />
        </mxCell>
        <mxCell id="3mG12tcG9sDd9IzTbJzw-9" style="edgeStyle=orthogonalEdgeStyle;rounded=0;orthogonalLoop=1;jettySize=auto;html=1;exitX=0.5;exitY=1;exitDx=0;exitDy=0;entryX=1;entryY=0.5;entryDx=0;entryDy=0;" parent="1" source="3mG12tcG9sDd9IzTbJzw-5" target="3mG12tcG9sDd9IzTbJzw-4" edge="1">
          <mxGeometry relative="1" as="geometry" />
        </mxCell>
        <mxCell id="3mG12tcG9sDd9IzTbJzw-14" value="options.shell: false" style="edgeLabel;html=1;align=center;verticalAlign=middle;resizable=0;points=[];" parent="3mG12tcG9sDd9IzTbJzw-9" vertex="1" connectable="0">
          <mxGeometry x="-0.4357" y="-2" relative="1" as="geometry">
            <mxPoint as="offset" />
          </mxGeometry>
        </mxCell>
        <mxCell id="3mG12tcG9sDd9IzTbJzw-5" value="fork" style="rounded=1;whiteSpace=wrap;html=1;" parent="1" vertex="1">
          <mxGeometry x="536" y="100" width="120" height="60" as="geometry" />
        </mxCell>
        <mxCell id="3mG12tcG9sDd9IzTbJzw-10" value="spawn" style="rounded=1;whiteSpace=wrap;html=1;" parent="1" vertex="1">
          <mxGeometry x="270" y="620" width="120" height="60" as="geometry" />
        </mxCell>
        <mxCell id="3mG12tcG9sDd9IzTbJzw-15" value="internal/child_process.js" style="text;html=1;strokeColor=none;fillColor=none;align=center;verticalAlign=middle;whiteSpace=wrap;rounded=0;" parent="1" vertex="1">
          <mxGeometry x="400" y="630" width="136" height="20" as="geometry" />
        </mxCell>
        <mxCell id="3mG12tcG9sDd9IzTbJzw-16" value="执行 shell 命令" style="text;html=1;strokeColor=none;fillColor=none;align=center;verticalAlign=middle;whiteSpace=wrap;rounded=0;" parent="1" vertex="1">
          <mxGeometry x="-90" y="120" width="110" height="20" as="geometry" />
        </mxCell>
        <mxCell id="3mG12tcG9sDd9IzTbJzw-17" value="执行 shell 命令文件" style="text;html=1;strokeColor=none;fillColor=none;align=center;verticalAlign=middle;whiteSpace=wrap;rounded=0;" parent="1" vertex="1">
          <mxGeometry x="-90" y="230" width="110" height="20" as="geometry" />
        </mxCell>
        <mxCell id="3mG12tcG9sDd9IzTbJzw-18" value="执行开销小的任务" style="text;html=1;strokeColor=none;fillColor=none;align=center;verticalAlign=middle;whiteSpace=wrap;rounded=0;" parent="1" vertex="1">
          <mxGeometry x="170" y="170" width="110" height="20" as="geometry" />
        </mxCell>
        <mxCell id="3mG12tcG9sDd9IzTbJzw-25" value="执行开销大的任务 npm install" style="text;html=1;strokeColor=none;fillColor=none;align=center;verticalAlign=middle;whiteSpace=wrap;rounded=0;" parent="1" vertex="1">
          <mxGeometry x="90" y="390" width="170" as="geometry" />
        </mxCell>
        <mxCell id="9C7MWj4vBOad_BRdYSQF-1" value="" style="endArrow=none;dashed=1;html=1;dashPattern=1 3;strokeWidth=2;" edge="1" parent="1">
          <mxGeometry width="50" height="50" relative="1" as="geometry">
            <mxPoint y="500" as="sourcePoint" />
            <mxPoint x="710" y="500" as="targetPoint" />
          </mxGeometry>
        </mxCell>
        <mxCell id="9C7MWj4vBOad_BRdYSQF-2" style="edgeStyle=orthogonalEdgeStyle;rounded=0;orthogonalLoop=1;jettySize=auto;html=1;entryX=0.5;entryY=0;entryDx=0;entryDy=0;" edge="1" parent="1" source="9C7MWj4vBOad_BRdYSQF-4" target="9C7MWj4vBOad_BRdYSQF-8">
          <mxGeometry relative="1" as="geometry" />
        </mxCell>
        <mxCell id="9C7MWj4vBOad_BRdYSQF-3" style="edgeStyle=orthogonalEdgeStyle;rounded=0;orthogonalLoop=1;jettySize=auto;html=1;exitX=1;exitY=0.5;exitDx=0;exitDy=0;entryX=0.5;entryY=0;entryDx=0;entryDy=0;dashed=1;" edge="1" parent="1" source="9C7MWj4vBOad_BRdYSQF-4" target="9C7MWj4vBOad_BRdYSQF-18">
          <mxGeometry relative="1" as="geometry" />
        </mxCell>
        <mxCell id="9C7MWj4vBOad_BRdYSQF-4" value="exec" style="rounded=1;whiteSpace=wrap;html=1;" vertex="1" parent="1">
          <mxGeometry x="30" y="100" width="120" height="60" as="geometry" />
        </mxCell>
        <mxCell id="9C7MWj4vBOad_BRdYSQF-5" style="edgeStyle=orthogonalEdgeStyle;rounded=0;orthogonalLoop=1;jettySize=auto;html=1;exitX=0.5;exitY=1;exitDx=0;exitDy=0;entryX=0;entryY=0.5;entryDx=0;entryDy=0;" edge="1" parent="1" source="9C7MWj4vBOad_BRdYSQF-8" target="9C7MWj4vBOad_BRdYSQF-10">
          <mxGeometry relative="1" as="geometry" />
        </mxCell>
        <mxCell id="9C7MWj4vBOad_BRdYSQF-6" value="options.shell: true" style="edgeLabel;html=1;align=center;verticalAlign=middle;resizable=0;points=[];" vertex="1" connectable="0" parent="9C7MWj4vBOad_BRdYSQF-5">
          <mxGeometry x="-0.6125" y="-1" relative="1" as="geometry">
            <mxPoint as="offset" />
          </mxGeometry>
        </mxCell>
        <mxCell id="9C7MWj4vBOad_BRdYSQF-7" style="edgeStyle=orthogonalEdgeStyle;rounded=0;orthogonalLoop=1;jettySize=auto;html=1;exitX=1;exitY=0.5;exitDx=0;exitDy=0;dashed=1;" edge="1" parent="1" source="9C7MWj4vBOad_BRdYSQF-8" target="9C7MWj4vBOad_BRdYSQF-18">
          <mxGeometry relative="1" as="geometry" />
        </mxCell>
        <mxCell id="9C7MWj4vBOad_BRdYSQF-8" value="execFile" style="rounded=1;whiteSpace=wrap;html=1;" vertex="1" parent="1">
          <mxGeometry x="30" y="210" width="120" height="60" as="geometry" />
        </mxCell>
        <mxCell id="9C7MWj4vBOad_BRdYSQF-9" style="edgeStyle=orthogonalEdgeStyle;rounded=0;orthogonalLoop=1;jettySize=auto;html=1;exitX=0.5;exitY=1;exitDx=0;exitDy=0;" edge="1" parent="1" source="9C7MWj4vBOad_BRdYSQF-10" target="9C7MWj4vBOad_BRdYSQF-14">
          <mxGeometry relative="1" as="geometry" />
        </mxCell>
        <mxCell id="9C7MWj4vBOad_BRdYSQF-10" value="spawn" style="rounded=1;whiteSpace=wrap;html=1;" vertex="1" parent="1">
          <mxGeometry x="270" y="330" width="120" height="60" as="geometry" />
        </mxCell>
        <mxCell id="9C7MWj4vBOad_BRdYSQF-11" style="edgeStyle=orthogonalEdgeStyle;rounded=0;orthogonalLoop=1;jettySize=auto;html=1;exitX=0.5;exitY=1;exitDx=0;exitDy=0;entryX=1;entryY=0.5;entryDx=0;entryDy=0;" edge="1" parent="1" source="9C7MWj4vBOad_BRdYSQF-13" target="9C7MWj4vBOad_BRdYSQF-10">
          <mxGeometry relative="1" as="geometry" />
        </mxCell>
        <mxCell id="9C7MWj4vBOad_BRdYSQF-12" value="options.shell: false" style="edgeLabel;html=1;align=center;verticalAlign=middle;resizable=0;points=[];" vertex="1" connectable="0" parent="9C7MWj4vBOad_BRdYSQF-11">
          <mxGeometry x="-0.4357" y="-2" relative="1" as="geometry">
            <mxPoint as="offset" />
          </mxGeometry>
        </mxCell>
        <mxCell id="9C7MWj4vBOad_BRdYSQF-13" value="fork" style="rounded=1;whiteSpace=wrap;html=1;" vertex="1" parent="1">
          <mxGeometry x="536" y="100" width="120" height="60" as="geometry" />
        </mxCell>
        <mxCell id="9C7MWj4vBOad_BRdYSQF-14" value="spawn" style="rounded=1;whiteSpace=wrap;html=1;" vertex="1" parent="1">
          <mxGeometry x="270" y="590" width="120" height="60" as="geometry" />
        </mxCell>
        <mxCell id="9C7MWj4vBOad_BRdYSQF-15" value="internal/child_process.js" style="text;html=1;strokeColor=none;fillColor=none;align=center;verticalAlign=middle;whiteSpace=wrap;rounded=0;" vertex="1" parent="1">
          <mxGeometry x="400" y="630" width="136" height="20" as="geometry" />
        </mxCell>
        <mxCell id="9C7MWj4vBOad_BRdYSQF-16" value="执行 shell 命令" style="text;html=1;strokeColor=none;fillColor=none;align=center;verticalAlign=middle;whiteSpace=wrap;rounded=0;" vertex="1" parent="1">
          <mxGeometry x="-90" y="120" width="110" height="20" as="geometry" />
        </mxCell>
        <mxCell id="9C7MWj4vBOad_BRdYSQF-17" value="执行 shell 命令文件" style="text;html=1;strokeColor=none;fillColor=none;align=center;verticalAlign=middle;whiteSpace=wrap;rounded=0;" vertex="1" parent="1">
          <mxGeometry x="-90" y="230" width="110" height="20" as="geometry" />
        </mxCell>
        <mxCell id="9C7MWj4vBOad_BRdYSQF-18" value="执行开销小的任务" style="text;html=1;strokeColor=none;fillColor=none;align=center;verticalAlign=middle;whiteSpace=wrap;rounded=0;" vertex="1" parent="1">
          <mxGeometry x="170" y="170" width="110" height="20" as="geometry" />
        </mxCell>
        <mxCell id="9C7MWj4vBOad_BRdYSQF-19" value="执行开销大的任务 npm install" style="text;html=1;strokeColor=none;fillColor=none;align=center;verticalAlign=middle;whiteSpace=wrap;rounded=0;" vertex="1" parent="1">
          <mxGeometry x="90" y="390" width="170" as="geometry" />
        </mxCell>
        <mxCell id="9C7MWj4vBOad_BRdYSQF-20" value="childProcess.exec(&#39;ls -al&#39;, cb)" style="text;html=1;strokeColor=none;fillColor=none;align=center;verticalAlign=middle;whiteSpace=wrap;rounded=0;" vertex="1" parent="1">
          <mxGeometry x="20" y="70" width="180" height="20" as="geometry" />
        </mxCell>
        <mxCell id="9C7MWj4vBOad_BRdYSQF-21" value="childProcess.execFile(file.shell, [...args], cb)" style="text;html=1;strokeColor=none;fillColor=none;align=center;verticalAlign=middle;whiteSpace=wrap;rounded=0;" vertex="1" parent="1">
          <mxGeometry x="160" y="250" width="250" height="20" as="geometry" />
        </mxCell>
      </root>
    </mxGraphModel>
  </diagram>
</mxfile>
